<?xml version="1.0" encoding="iso-8859-1"?>
<!-- Generator: Adobe Illustrator 19.0.0, SVG Export Plug-In . SVG Version: 6.00 Build 0)  -->
<svg version="1.1" id="Layer_1" xmlns="http://www.w3.org/2000/svg" xmlns:xlink="http://www.w3.org/1999/xlink" x="0px" y="0px"
	 viewBox="0 0 512 512" style="enable-background:new 0 0 512 512;" xml:space="preserve">
<rect x="49.069" y="171.969" style="fill:#FF2E48;" width="182.78" height="329.832"/>
<g>
	<rect x="71.12" y="108.938" style="fill:#BDCED4;" width="138.658" height="63.026"/>
	<polygon style="fill:#BDCED4;" points="165.663,108.94 115.242,108.94 125.747,10.199 155.159,10.199 	"/>
</g>
<rect x="280.162" y="171.969" style="fill:#FF7731;" width="182.78" height="329.832"/>
<g>
	<rect x="302.223" y="108.938" style="fill:#BDCED4;" width="138.658" height="63.026"/>
	<polygon style="fill:#BDCED4;" points="396.759,108.94 346.338,108.94 356.842,10.199 386.254,10.199 	"/>
</g>
<path d="M231.841,161.766h-11.86V108.94c0-5.633-4.566-10.199-10.199-10.199h-34.947l-9.534-89.62
	C164.749,3.934,160.375,0,155.159,0h-29.412c-5.215,0-9.59,3.934-10.142,9.12l-9.534,89.62H71.125
	c-5.633,0-10.199,4.566-10.199,10.199v52.827h-11.86c-5.633,0-10.199,4.566-10.199,10.199v329.835
	c0,5.633,4.566,10.199,10.199,10.199h182.775c5.633,0,10.199-4.566,10.199-10.199V171.966
	C242.04,166.333,237.474,161.766,231.841,161.766z M134.919,20.398h11.069l8.334,78.342h-27.738L134.919,20.398z M199.583,119.139
	v42.628H81.324v-42.628H199.583z M221.641,182.165v309.437H59.265V182.165H221.641z"/>
<path d="M462.935,161.766h-11.86V108.94c0-5.633-4.566-10.199-10.199-10.199H405.93l-9.534-89.62C395.844,3.934,391.469,0,386.254,0
	h-29.412c-5.215,0-9.59,3.934-10.142,9.12l-9.534,89.62h-34.947c-5.633,0-10.199,4.566-10.199,10.199v52.827h-11.86
	c-5.633,0-10.199,4.566-10.199,10.199v329.835c0,5.633,4.566,10.199,10.199,10.199h182.775c5.633,0,10.199-4.566,10.199-10.199
	V171.966C473.134,166.333,468.568,161.766,462.935,161.766z M366.013,20.398h11.069l8.335,78.342h-27.738L366.013,20.398z
	 M430.677,119.139v42.628H312.418v-42.628H430.677z M452.736,182.165v309.437H290.36V182.165H452.736z"/>
<path d="M82.679,318.28c-5.633,0-10.199,4.566-10.199,10.199v7.353c0,5.633,4.566,10.199,10.199,10.199
	c5.633,0,10.199-4.566,10.199-10.199v-7.353C92.879,322.847,88.312,318.28,82.679,318.28z"/>
<path d="M82.679,357.147c-5.633,0-10.199,4.566-10.199,10.199v101.892c0,5.633,4.566,10.199,10.199,10.199
	c5.633,0,10.199-4.566,10.199-10.199V367.346C92.879,361.713,88.312,357.147,82.679,357.147z"/>
<g>
</g>
<g>
</g>
<g>
</g>
<g>
</g>
<g>
</g>
<g>
</g>
<g>
</g>
<g>
</g>
<g>
</g>
<g>
</g>
<g>
</g>
<g>
</g>
<g>
</g>
<g>
</g>
<g>
</g>
</svg>
